<?xml version="1.0" encoding="UTF-8" standalone="no"?>
<!-- Created with Inkscape (http://www.inkscape.org/) -->

<svg
   xmlns:osb="http://www.openswatchbook.org/uri/2009/osb"
   xmlns:dc="http://purl.org/dc/elements/1.1/"
   xmlns:cc="http://creativecommons.org/ns#"
   xmlns:rdf="http://www.w3.org/1999/02/22-rdf-syntax-ns#"
   xmlns:svg="http://www.w3.org/2000/svg"
   xmlns="http://www.w3.org/2000/svg"
   xmlns:sodipodi="http://sodipodi.sourceforge.net/DTD/sodipodi-0.dtd"
   xmlns:inkscape="http://www.inkscape.org/namespaces/inkscape"
   width="744.09448819"
   height="1052.3622047"
   id="svg2"
   version="1.1"
   inkscape:version="0.48.4 r9939"
   sodipodi:docname="canhao.svg">
  <defs
     id="defs4">
    <linearGradient
       id="linearGradient3887"
       osb:paint="solid">
      <stop
         style="stop-color:#333333;stop-opacity:1;"
         offset="0"
         id="stop3889" />
    </linearGradient>
  </defs>
  <sodipodi:namedview
     id="base"
     pagecolor="#ffffff"
     bordercolor="#666666"
     borderopacity="1.0"
     inkscape:pageopacity="0.0"
     inkscape:pageshadow="2"
     inkscape:zoom="0.7"
     inkscape:cx="344.45283"
     inkscape:cy="849.25152"
     inkscape:document-units="px"
     inkscape:current-layer="layer1"
     showgrid="false"
     inkscape:snap-bbox="true"
     inkscape:snap-global="false"
     inkscape:snap-grids="false"
     inkscape:window-width="1024"
     inkscape:window-height="543"
     inkscape:window-x="0"
     inkscape:window-y="0"
     inkscape:window-maximized="1" />
  <metadata
     id="metadata7">
    <rdf:RDF>
      <cc:Work
         rdf:about="">
        <dc:format>image/svg+xml</dc:format>
        <dc:type
           rdf:resource="http://purl.org/dc/dcmitype/StillImage" />
        <dc:title />
      </cc:Work>
    </rdf:RDF>
  </metadata>
  <g
     inkscape:label="Layer 1"
     inkscape:groupmode="layer"
     id="layer1">
    <path
       style="fill:#000000;stroke:#000000;stroke-width:1.03592575px;stroke-linecap:butt;stroke-linejoin:miter;stroke-opacity:1"
       d="M 22.174211,35.298419 C 23.556147,34.056721 73.390098,7.6218781 75.160374,7.6384827 c 1.617158,0.015162 3.314254,0.6306615 4.599574,1.7320828 1.013903,0.8688285 1.819218,2.1796565 2.13001,3.5680995 0.30731,1.372906 0.162611,2.943316 -0.370435,4.226282 -0.565778,1.361735 -33.563397,25.323176 -34.715988,26.087687 -1.057397,0.701367 -16.812917,12.653189 -20.839721,13.047816 -4.89617,0.479824 -7.173589,-0.108725 -8.589921,-1.129814 -1.416326,-1.021081 -3.193667,-2.604453 -3.441435,-3.870606 -0.22836,-1.166994 -1.984628,-3.664769 0.284848,-8.47073 2.269462,-4.805961 6.887841,-6.570307 7.956912,-7.530881 z"
       id="path4051-7"
       inkscape:connector-curvature="0"
       sodipodi:nodetypes="csssssszszsc" />
    <path
       style="fill:#a05a2c;fill-opacity:0.98941806;stroke:none"
       d="M 22.348839,64.380471 C 18.501868,64.004435 14.436004,62.516256 11.440674,60.387876 9.6214893,59.095223 7.8084567,57.145247 6.5448536,55.122238 5.5872318,53.589123 5.010249,52.223731 4.5582873,50.421198 3.979285,48.112019 3.8851048,47.413262 3.9599566,45.981982 c 0.1278121,-2.44415 0.5505764,-4.1489 1.4989935,-6.044594 0.4047575,-0.809039 0.608374,-1.160259 1.1172611,-1.927226 1.4931095,-2.250321 3.6950668,-4.372965 6.0517858,-5.833805 2.447216,-1.516933 5.642714,-2.502967 9.466707,-2.921129 0.969067,-0.105968 3.459086,-0.105559 4.383908,6.71e-4 2.584863,0.297058 4.579306,0.866977 6.649989,1.900262 1.710754,0.85368 3.639516,2.048496 4.807477,2.978095 2.761309,2.197784 4.806733,5.490824 5.564535,8.958652 0.261783,1.197963 0.37707,2.332741 0.37868,3.727377 0.002,1.664657 -0.173541,3.010955 -0.580807,4.456317 -0.730101,2.591083 -2.347092,5.271341 -4.351705,7.213185 -1.717249,1.663477 -3.21794,2.693549 -5.479325,3.760996 -2.443372,1.153349 -4.60533,1.792557 -7.052378,2.085101 -0.784967,0.09384 -3.281977,0.12119 -4.066239,0.04455 l 0,0 z m 1.311304,-1.877586 c -0.004,-2.742108 -0.116843,-10.819781 -0.151985,-10.850427 -0.02026,-0.01771 -0.163262,-0.05434 -0.317756,-0.08147 -0.663025,-0.116414 -1.542293,-0.49457 -2.129406,-0.915818 -0.321614,-0.230761 -0.337682,-0.237195 -0.407502,-0.163249 -0.67231,0.712047 -8.681874,9.468418 -8.681498,9.490953 5.7e-4,0.03448 0.09597,0.09948 0.761895,0.519018 2.128306,1.34085 4.940287,2.426545 7.666549,2.960021 1.036901,0.202898 2.082437,0.325907 2.869658,0.337607 l 0.391802,0.006 -0.002,-1.302461 z m 2.077231,1.257921 c 1.765432,-0.125625 3.640502,-0.545042 5.446061,-1.218177 1.816401,-0.677174 3.646763,-1.603921 4.917182,-2.48967 l 0.402577,-0.280682 -0.439878,-0.450734 C 35.821378,59.073634 33.788419,56.998469 31.545625,54.71006 l -4.077819,-4.160741 -0.304325,0.205354 c -0.617619,0.416767 -1.424028,0.745512 -2.104348,0.85786 l -0.300105,0.04958 0.02509,1.592409 c 0.03891,2.4712 0.106149,8.559074 0.106149,9.607991 l 0,0.942848 0.116481,-4.22e-4 c 0.06407,-2.08e-4 0.392856,-0.02006 0.730651,-0.04415 l 0,6e-6 z M 15.362912,54.37258 c 2.432846,-2.648739 4.429408,-4.84015 4.436815,-4.869796 0.0074,-0.02965 -0.04515,-0.139097 -0.116796,-0.24322 -0.191722,-0.278663 -0.446682,-0.82624 -0.532751,-1.144218 l -0.07537,-0.278448 -0.511349,0 c -0.786973,0 -10.8747876,-0.119432 -12.5121596,-0.148133 l -1.4515478,-0.02543 0.026769,0.182094 c 0.038979,0.265366 0.3370776,1.612583 0.5089206,2.299928 0.3522332,1.408926 0.6241669,2.175376 1.1452039,3.227815 0.8760876,1.769579 2.0765061,3.398129 3.6011278,4.885469 0.6519954,0.636055 0.9744674,0.929853 1.0205984,0.929853 0.02046,0 2.027726,-2.16715 4.460571,-4.815897 z m 22.954147,3.852285 c 1.153355,-1.113364 1.816105,-1.921497 2.589439,-3.157473 1.119522,-1.789276 1.804814,-3.558224 2.130849,-5.500404 0.11222,-0.668479 0.193311,-1.40749 0.193311,-1.761696 l 0,-0.228681 -1.238927,0.02395 c -0.681415,0.01322 -3.816868,0.03509 -6.967672,0.04864 -4.740756,0.0204 -5.729394,0.01496 -5.732574,-0.03147 -0.002,-0.03086 -0.03703,0.0868 -0.07758,0.261522 -0.148644,0.640416 -0.328464,1.067286 -0.648071,1.538448 l -0.167261,0.246574 0.607401,0.621739 c 4.527607,4.634487 8.484175,8.648316 8.524932,8.648316 0.02818,0 0.38192,-0.319266 0.786148,-0.709471 z M 24.978075,50.98746 c 1.385136,-0.237805 2.767038,-1.220458 3.339815,-2.3749 0.306733,-0.618216 0.421409,-1.52279 0.281024,-2.216737 -0.274852,-1.358689 -1.307433,-2.430933 -2.809459,-2.917399 -0.591051,-0.191426 -0.905634,-0.237309 -1.619278,-0.236175 -0.73039,0.0013 -1.099509,0.0536 -1.694264,0.24065 -1.370477,0.43105 -2.212336,1.222337 -2.664888,2.504799 -0.148429,0.420624 -0.151823,0.444481 -0.151481,1.065602 3.42e-4,0.605563 0.0067,0.653659 0.136433,1.025892 0.685419,1.967104 3.022951,3.278951 5.182098,2.908268 z m -5.878903,-4.791879 c 0.131449,-0.578727 0.444649,-1.242081 0.823973,-1.745151 l 0.142169,-0.188549 -0.563088,-0.557775 c -0.309699,-0.30678 -2.513554,-2.458426 -4.897451,-4.78144 L 10.270419,34.699002 9.9677112,34.98858 c -2.2318386,2.135049 -3.7190308,4.305091 -4.582043,6.685895 -0.4636889,1.279189 -0.7063515,2.57152 -0.8012294,4.266965 l -0.023079,0.412976 1.0048326,0.004 c 0.7632702,0.0027 9.5605784,0.11061 13.0133244,0.159337 l 0.445132,0.006 0.07456,-0.328262 z m 19.644019,0.08949 4.51331,-0.02563 -0.01369,-0.259616 c -0.10682,-2.028129 -0.487009,-3.750094 -1.196454,-5.419065 -0.89971,-2.116573 -2.471073,-4.273211 -4.123882,-5.659876 l -0.373615,-0.313462 -0.203636,0.208286 c -0.366785,0.37515 -8.80968,9.587172 -8.858769,9.665781 -0.03978,0.06367 -0.01167,0.132019 0.166321,0.404697 0.226602,0.347121 0.450915,0.875135 0.528088,1.243061 l 0.04643,0.221348 2.501284,-0.01999 c 1.375709,-0.011 4.532276,-0.03153 7.0146,-0.04555 l 0,0 z M 29.89313,41.041097 c 3.127027,-3.415505 6.560465,-7.196634 6.560465,-7.224805 0,-0.04435 -1.693452,-1.078893 -2.499036,-1.526742 -1.292753,-0.718675 -2.351284,-1.190328 -3.55128,-1.582332 -1.497484,-0.489196 -3.372501,-0.822443 -5.057708,-0.898911 l -0.624757,-0.02838 6.71e-4,0.779519 c 5.63e-4,0.428735 0.02871,3.02866 0.06253,5.777605 0.03381,2.748944 0.06199,5.287891 0.06253,5.642097 l 6.71e-4,0.644018 0.158835,0.02563 c 0.82628,0.133434 1.718436,0.468257 2.297848,0.862381 l 0.190608,0.129651 0.153057,-0.15748 c 0.08418,-0.08662 1.094384,-1.185652 2.244901,-2.442305 l -6e-6,0 z m -8.343917,2.138947 c 0.512402,-0.244092 1.028106,-0.402544 1.636104,-0.502688 l 0.434082,-0.0715 -6.71e-4,-0.825958 c -4.49e-4,-0.45427 -0.02858,-3.113207 -0.06253,-5.908745 -0.03395,-2.795537 -0.06213,-5.309031 -0.06266,-5.585547 l -6.71e-4,-0.502748 -0.455336,0.02912 c -3.738977,0.239181 -7.432225,1.283945 -9.958828,2.817215 -0.508894,0.308819 -1.321173,0.857792 -1.59308,1.076665 l -0.126215,0.1016 0.676852,0.709881 c 0.372266,0.390434 1.496444,1.51427 2.498184,2.497405 3.095293,3.037832 6.521606,6.372192 6.54924,6.37348 0.01449,6.71e-4 0.224146,-0.09301 0.465923,-0.208185 l 0,0 z"
       id="path4241"
       inkscape:connector-curvature="0" />
  </g>
</svg>
