<?xml version="1.0" encoding="UTF-8" standalone="no"?>
<!-- Created with Inkscape (http://www.inkscape.org/) -->

<svg
   xmlns:dc="http://purl.org/dc/elements/1.1/"
   xmlns:cc="http://creativecommons.org/ns#"
   xmlns:rdf="http://www.w3.org/1999/02/22-rdf-syntax-ns#"
   xmlns:svg="http://www.w3.org/2000/svg"
   xmlns="http://www.w3.org/2000/svg"
   xmlns:sodipodi="http://sodipodi.sourceforge.net/DTD/sodipodi-0.dtd"
   xmlns:inkscape="http://www.inkscape.org/namespaces/inkscape"
   width="1052.3622"
   height="744.09448"
   id="svg2"
   version="1.1"
   inkscape:version="0.48.4 r9939"
   sodipodi:docname="cenario.svg">
  <defs
     id="defs4" />
  <sodipodi:namedview
     id="base"
     pagecolor="#ffffff"
     bordercolor="#666666"
     borderopacity="1.0"
     inkscape:pageopacity="0.0"
     inkscape:pageshadow="2"
     inkscape:zoom="0.49497475"
     inkscape:cx="321.58982"
     inkscape:cy="418.43716"
     inkscape:document-units="px"
     inkscape:current-layer="layer1"
     showgrid="false"
     inkscape:window-width="996"
     inkscape:window-height="600"
     inkscape:window-x="22"
     inkscape:window-y="0"
     inkscape:window-maximized="0"
     showguides="true"
     inkscape:guide-bbox="true" />
  <metadata
     id="metadata7">
    <rdf:RDF>
      <cc:Work
         rdf:about="">
        <dc:format>image/svg+xml</dc:format>
        <dc:type
           rdf:resource="http://purl.org/dc/dcmitype/StillImage" />
        <dc:title />
      </cc:Work>
    </rdf:RDF>
  </metadata>
  <g
     inkscape:label="Layer 1"
     inkscape:groupmode="layer"
     id="layer1"
     transform="translate(0,-308.2677)">
    <rect
       style="fill:#0000ff;fill-opacity:0.98941806;stroke:none"
       id="rect2985"
       width="909.88837"
       height="494.65433"
       x="-2.0834606"
       y="306.15179" />
    <path
       style="fill:#000080;stroke:#000000;stroke-width:1.58947253px;stroke-linecap:butt;stroke-linejoin:miter;stroke-opacity:1"
       d="m 204.43936,804.4031 0.74415,-77.07871 c 0,0 38.86118,17.35867 61.02244,13.85684 20.91469,-3.30486 39.44132,-12.12474 39.44132,-12.12474 0,0 32.09805,12.94581 58.04572,12.55776 24.77409,-0.37051 37.20877,-12.12474 37.20877,-12.12474 0,0 47.16915,11.21426 70.6967,11.25869 27.39882,0.0517 42.41803,-12.12476 42.41803,-12.12476 0,0 30.21602,5.13602 48.37142,7.79449 21.33393,3.12389 58.04571,-8.66053 58.04571,-8.66053 0,0 23.33949,5.9617 40.1855,7.36146 15.46296,1.28483 43.90638,-9.52659 43.90638,-9.52659 l 0,78.81083 z"
       id="path3007"
       inkscape:connector-curvature="0"
       sodipodi:nodetypes="ccccscscscsccc" />
    <rect
       style="fill:#008000;fill-opacity:0.98941806;stroke:none"
       id="rect2987"
       width="278.68857"
       height="124.73273"
       x="-2.4135327"
       y="680.0954"
       ry="6.8080339"
       rx="0" />
    <rect
       style="fill:#008080;fill-opacity:0.98941806;stroke:none"
       id="rect2987-1"
       width="278.33127"
       height="127.74448"
       x="628.802"
       y="678.58691"
       ry="6.9724193"
       rx="0" />
    <path
       style="fill:#ececec;stroke:#000000;stroke-width:1.44935811px;stroke-linecap:butt;stroke-linejoin:miter;stroke-opacity:1"
       d="m 148.43934,395.12825 c -21.64743,-18.32006 8.59909,-33.11845 21.25246,-36.88473 9.65943,-2.87513 27.06762,13.38327 27.06762,13.38327 0,0 21.32413,-17.94267 34.35505,-18.53066 13.97432,-0.63056 38.51931,16.4717 38.51931,16.4717 0,0 28.2862,-17.27644 42.68355,-13.38327 8.53401,2.30767 17.83015,10.81221 17.69806,19.56016 -0.14298,9.46545 -10.78479,17.35112 -19.78018,20.58964 -17.39277,6.26173 -36.68331,-6.95153 -55.17629,-6.1769 -19.44669,0.81458 -53.25335,14.92379 -72.71743,14.96406 -16.26557,0.0336 -33.90215,-9.99327 -33.90215,-9.99327 z"
       id="path3009"
       inkscape:connector-curvature="0"
       sodipodi:nodetypes="sscscssssss" />
    <path
       style="fill:#f2f2f2;stroke:#000000;stroke-width:1.44935811px;stroke-linecap:butt;stroke-linejoin:miter;stroke-opacity:1"
       d="m 632.41349,402.82872 c -15.45898,-22.56657 -40.032,-19.66038 -50.7938,-6.55159 -6.55431,7.9837 -19.57583,27.99389 10.30599,29.11814 42.45877,1.59745 44.90467,-2.91181 44.90467,-2.91181 0,0 27.74198,8.99031 40.4878,4.36771 12.3847,-4.49163 57.04876,1.08968 27.23726,-28.39018 -4.41686,-4.36772 -25.96303,-5.32379 -39.01553,-4.36773 -11.39677,0.8348 -33.12639,8.73546 -33.12639,8.73546 z"
       id="path3011"
       inkscape:connector-curvature="0"
       sodipodi:nodetypes="csscsssc" />
    <path
       sodipodi:type="star"
       style="fill:#f2f2f2;fill-opacity:0.98941806;stroke:none"
       id="path3017"
       sodipodi:sides="4"
       sodipodi:cx="149.64285"
       sodipodi:cy="350.93362"
       sodipodi:r1="4.0406103"
       sodipodi:r2="2.0203052"
       sodipodi:arg1="0.78539816"
       sodipodi:arg2="1.5707963"
       inkscape:flatsided="false"
       inkscape:rounded="0"
       inkscape:randomized="0"
       d="m 152.5,353.79077 -2.85715,-0.83684 -2.85714,0.83684 0.83684,-2.85715 -0.83684,-2.85714 2.85714,0.83684 2.85715,-0.83684 -0.83684,2.85714 z"
       transform="matrix(1.4574871,0,0,1.4412746,-110.35392,-80.220022)" />
    <path
       transform="matrix(1.4574871,0,0,1.4412746,144.18578,-110.07501)"
       sodipodi:type="star"
       style="fill:#f2f2f2;fill-opacity:0.98941806;stroke:none"
       id="path3017-7"
       sodipodi:sides="4"
       sodipodi:cx="149.64285"
       sodipodi:cy="350.93362"
       sodipodi:r1="4.0406103"
       sodipodi:r2="2.0203052"
       sodipodi:arg1="0.78539816"
       sodipodi:arg2="1.5707963"
       inkscape:flatsided="false"
       inkscape:rounded="0"
       inkscape:randomized="0"
       d="m 152.5,353.79077 -2.85715,-0.83684 -2.85714,0.83684 0.83684,-2.85715 -0.83684,-2.85714 2.85714,0.83684 2.85715,-0.83684 -0.83684,2.85714 z" />
    <path
       transform="matrix(1.4574871,0,0,1.4412746,259.7437,-122.4288)"
       sodipodi:type="star"
       style="fill:#f2f2f2;fill-opacity:0.98941806;stroke:none"
       id="path3017-4"
       sodipodi:sides="4"
       sodipodi:cx="149.64285"
       sodipodi:cy="350.93362"
       sodipodi:r1="4.0406103"
       sodipodi:r2="2.0203052"
       sodipodi:arg1="0.78539816"
       sodipodi:arg2="1.5707963"
       inkscape:flatsided="false"
       inkscape:rounded="0"
       inkscape:randomized="0"
       d="m 152.5,353.79077 -2.85715,-0.83684 -2.85714,0.83684 0.83684,-2.85715 -0.83684,-2.85714 2.85714,0.83684 2.85715,-0.83684 -0.83684,2.85714 z" />
    <path
       transform="matrix(1.4574871,0,0,1.4412746,32.792132,-73.013663)"
       sodipodi:type="star"
       style="fill:#f2f2f2;fill-opacity:0.98941806;stroke:none"
       id="path3017-0"
       sodipodi:sides="4"
       sodipodi:cx="149.64285"
       sodipodi:cy="350.93362"
       sodipodi:r1="4.0406103"
       sodipodi:r2="2.0203052"
       sodipodi:arg1="0.78539816"
       sodipodi:arg2="1.5707963"
       inkscape:flatsided="false"
       inkscape:rounded="0"
       inkscape:randomized="0"
       d="m 152.5,353.79077 -2.85715,-0.83684 -2.85714,0.83684 0.83684,-2.85715 -0.83684,-2.85714 2.85714,0.83684 2.85715,-0.83684 -0.83684,2.85714 z" />
    <path
       transform="matrix(1.4574871,0,0,1.4412746,-161.88649,-165.66704)"
       sodipodi:type="star"
       style="fill:#f2f2f2;fill-opacity:0.98941806;stroke:none"
       id="path3017-9"
       sodipodi:sides="4"
       sodipodi:cx="149.64285"
       sodipodi:cy="350.93362"
       sodipodi:r1="4.0406103"
       sodipodi:r2="2.0203052"
       sodipodi:arg1="0.78539816"
       sodipodi:arg2="1.5707963"
       inkscape:flatsided="false"
       inkscape:rounded="0"
       inkscape:randomized="0"
       d="m 152.5,353.79077 -2.85715,-0.83684 -2.85714,0.83684 0.83684,-2.85715 -0.83684,-2.85714 2.85714,0.83684 2.85715,-0.83684 -0.83684,2.85714 z" />
    <path
       transform="matrix(1.4574871,0,0,1.4412746,-189.99517,-66.836786)"
       sodipodi:type="star"
       style="fill:#f2f2f2;fill-opacity:0.98941806;stroke:none"
       id="path3017-48"
       sodipodi:sides="4"
       sodipodi:cx="149.64285"
       sodipodi:cy="350.93362"
       sodipodi:r1="4.0406103"
       sodipodi:r2="2.0203052"
       sodipodi:arg1="0.78539816"
       sodipodi:arg2="1.5707963"
       inkscape:flatsided="false"
       inkscape:rounded="0"
       inkscape:randomized="0"
       d="m 152.5,353.79077 -2.85715,-0.83684 -2.85714,0.83684 0.83684,-2.85715 -0.83684,-2.85714 2.85714,0.83684 2.85715,-0.83684 -0.83684,2.85714 z" />
    <path
       transform="matrix(1.4574871,0,0,1.4412746,234.7582,-66.836786)"
       sodipodi:type="star"
       style="fill:#f2f2f2;fill-opacity:0.98941806;stroke:none"
       id="path3017-8"
       sodipodi:sides="4"
       sodipodi:cx="149.64285"
       sodipodi:cy="350.93362"
       sodipodi:r1="4.0406103"
       sodipodi:r2="2.0203052"
       sodipodi:arg1="0.78539816"
       sodipodi:arg2="1.5707963"
       inkscape:flatsided="false"
       inkscape:rounded="0"
       inkscape:randomized="0"
       d="m 152.5,353.79077 -2.85715,-0.83684 -2.85714,0.83684 0.83684,-2.85715 -0.83684,-2.85714 2.85714,0.83684 2.85715,-0.83684 -0.83684,2.85714 z" />
    <path
       transform="matrix(1.4574871,0,0,1.4412746,385.71222,-151.25429)"
       sodipodi:type="star"
       style="fill:#f2f2f2;fill-opacity:0.98941806;stroke:none"
       id="path3017-2"
       sodipodi:sides="4"
       sodipodi:cx="149.64285"
       sodipodi:cy="350.93362"
       sodipodi:r1="4.0406103"
       sodipodi:r2="2.0203052"
       sodipodi:arg1="0.78539816"
       sodipodi:arg2="1.5707963"
       inkscape:flatsided="false"
       inkscape:rounded="0"
       inkscape:randomized="0"
       d="m 152.5,353.79077 -2.85715,-0.83684 -2.85714,0.83684 0.83684,-2.85715 -0.83684,-2.85714 2.85714,0.83684 2.85715,-0.83684 -0.83684,2.85714 z" />
    <path
       transform="matrix(1.4574871,0,0,1.4412746,501.27012,-54.483002)"
       sodipodi:type="star"
       style="fill:#f2f2f2;fill-opacity:0.98941806;stroke:none"
       id="path3017-45"
       sodipodi:sides="4"
       sodipodi:cx="149.64285"
       sodipodi:cy="350.93362"
       sodipodi:r1="4.0406103"
       sodipodi:r2="2.0203052"
       sodipodi:arg1="0.78539816"
       sodipodi:arg2="1.5707963"
       inkscape:flatsided="false"
       inkscape:rounded="0"
       inkscape:randomized="0"
       d="m 152.5,353.79077 -2.85715,-0.83684 -2.85714,0.83684 0.83684,-2.85715 -0.83684,-2.85714 2.85714,0.83684 2.85715,-0.83684 -0.83684,2.85714 z" />
    <path
       transform="matrix(1.4574871,0,0,1.4412746,557.48748,-138.9005)"
       sodipodi:type="star"
       style="fill:#f2f2f2;fill-opacity:0.98941806;stroke:none"
       id="path3017-5"
       sodipodi:sides="4"
       sodipodi:cx="149.64285"
       sodipodi:cy="350.93362"
       sodipodi:r1="4.0406103"
       sodipodi:r2="2.0203052"
       sodipodi:arg1="0.78539816"
       sodipodi:arg2="1.5707963"
       inkscape:flatsided="false"
       inkscape:rounded="0"
       inkscape:randomized="0"
       d="m 152.5,353.79077 -2.85715,-0.83684 -2.85714,0.83684 0.83684,-2.85715 -0.83684,-2.85714 2.85714,0.83684 2.85715,-0.83684 -0.83684,2.85714 z" />
    <path
       transform="matrix(1.4574871,0,0,1.4412746,198.32102,-158.46067)"
       sodipodi:type="star"
       style="fill:#f2f2f2;fill-opacity:0.98941806;stroke:none"
       id="path3017-1"
       sodipodi:sides="4"
       sodipodi:cx="149.64285"
       sodipodi:cy="350.93362"
       sodipodi:r1="4.0406103"
       sodipodi:r2="2.0203052"
       sodipodi:arg1="0.78539816"
       sodipodi:arg2="1.5707963"
       inkscape:flatsided="false"
       inkscape:rounded="0"
       inkscape:randomized="0"
       d="m 152.5,353.79077 -2.85715,-0.83684 -2.85714,0.83684 0.83684,-2.85715 -0.83684,-2.85714 2.85714,0.83684 2.85715,-0.83684 -0.83684,2.85714 z" />
    <path
       transform="matrix(1.4574871,0,0,1.4412746,603.29421,-93.603309)"
       sodipodi:type="star"
       style="fill:#f2f2f2;fill-opacity:0.98941806;stroke:none"
       id="path3017-71"
       sodipodi:sides="4"
       sodipodi:cx="149.64285"
       sodipodi:cy="350.93362"
       sodipodi:r1="4.0406103"
       sodipodi:r2="2.0203052"
       sodipodi:arg1="0.78539816"
       sodipodi:arg2="1.5707963"
       inkscape:flatsided="false"
       inkscape:rounded="0"
       inkscape:randomized="0"
       d="m 152.5,353.79077 -2.85715,-0.83684 -2.85714,0.83684 0.83684,-2.85715 -0.83684,-2.85714 2.85714,0.83684 2.85715,-0.83684 -0.83684,2.85714 z" />
    <path
       transform="matrix(1.4574871,0,0,1.4412746,-84.847885,-29.775434)"
       sodipodi:type="star"
       style="fill:#f2f2f2;fill-opacity:0.98941806;stroke:none"
       id="path3017-15"
       sodipodi:sides="4"
       sodipodi:cx="149.64285"
       sodipodi:cy="350.93362"
       sodipodi:r1="4.0406103"
       sodipodi:r2="2.0203052"
       sodipodi:arg1="0.78539816"
       sodipodi:arg2="1.5707963"
       inkscape:flatsided="false"
       inkscape:rounded="0"
       inkscape:randomized="0"
       d="m 152.5,353.79077 -2.85715,-0.83684 -2.85714,0.83684 0.83684,-2.85715 -0.83684,-2.85714 2.85714,0.83684 2.85715,-0.83684 -0.83684,2.85714 z" />
    <path
       transform="matrix(1.4574871,0,0,1.4412746,125.44666,-31.83441)"
       sodipodi:type="star"
       style="fill:#f2f2f2;fill-opacity:0.98941806;stroke:none"
       id="path3017-27"
       sodipodi:sides="4"
       sodipodi:cx="149.64285"
       sodipodi:cy="350.93362"
       sodipodi:r1="4.0406103"
       sodipodi:r2="2.0203052"
       sodipodi:arg1="0.78539816"
       sodipodi:arg2="1.5707963"
       inkscape:flatsided="false"
       inkscape:rounded="0"
       inkscape:randomized="0"
       d="m 152.5,353.79077 -2.85715,-0.83684 -2.85714,0.83684 0.83684,-2.85715 -0.83684,-2.85714 2.85714,0.83684 2.85715,-0.83684 -0.83684,2.85714 z" />
    <path
       transform="matrix(1.4574871,0,0,1.4412746,377.38372,-35.952331)"
       sodipodi:type="star"
       style="fill:#f2f2f2;fill-opacity:0.98941806;stroke:none"
       id="path3017-6"
       sodipodi:sides="4"
       sodipodi:cx="149.64285"
       sodipodi:cy="350.93362"
       sodipodi:r1="4.0406103"
       sodipodi:r2="2.0203052"
       sodipodi:arg1="0.78539816"
       sodipodi:arg2="1.5707963"
       inkscape:flatsided="false"
       inkscape:rounded="0"
       inkscape:randomized="0"
       d="m 152.5,353.79077 -2.85715,-0.83684 -2.85714,0.83684 0.83684,-2.85715 -0.83684,-2.85714 2.85714,0.83684 2.85715,-0.83684 -0.83684,2.85714 z" />
    <path
       transform="matrix(1.4574871,0,0,1.4412746,597.04784,-48.306115)"
       sodipodi:type="star"
       style="fill:#f2f2f2;fill-opacity:0.98941806;stroke:none"
       id="path3017-14"
       sodipodi:sides="4"
       sodipodi:cx="149.64285"
       sodipodi:cy="350.93362"
       sodipodi:r1="4.0406103"
       sodipodi:r2="2.0203052"
       sodipodi:arg1="0.78539816"
       sodipodi:arg2="1.5707963"
       inkscape:flatsided="false"
       inkscape:rounded="0"
       inkscape:randomized="0"
       d="m 152.5,353.79077 -2.85715,-0.83684 -2.85714,0.83684 0.83684,-2.85715 -0.83684,-2.85714 2.85714,0.83684 2.85715,-0.83684 -0.83684,2.85714 z" />
    <path
       transform="matrix(1.4574871,0,0,1.4412746,641.77888,-145.11119)"
       sodipodi:type="star"
       style="fill:#f2f2f2;fill-opacity:0.98941806;stroke:none"
       id="path3017-0-1-19"
       sodipodi:sides="4"
       sodipodi:cx="149.64285"
       sodipodi:cy="350.93362"
       sodipodi:r1="4.0406103"
       sodipodi:r2="2.0203052"
       sodipodi:arg1="0.78539816"
       sodipodi:arg2="1.5707963"
       inkscape:flatsided="false"
       inkscape:rounded="0"
       inkscape:randomized="0"
       d="m 152.5,353.79077 -2.85715,-0.83684 -2.85714,0.83684 0.83684,-2.85715 -0.83684,-2.85714 2.85714,0.83684 2.85715,-0.83684 -0.83684,2.85714 z" />
  </g>
</svg>
