<?xml version="1.0" encoding="UTF-8" standalone="no"?>
<!-- Created with Inkscape (http://www.inkscape.org/) -->

<svg
   xmlns:dc="http://purl.org/dc/elements/1.1/"
   xmlns:cc="http://creativecommons.org/ns#"
   xmlns:rdf="http://www.w3.org/1999/02/22-rdf-syntax-ns#"
   xmlns:svg="http://www.w3.org/2000/svg"
   xmlns="http://www.w3.org/2000/svg"
   xmlns:sodipodi="http://sodipodi.sourceforge.net/DTD/sodipodi-0.dtd"
   xmlns:inkscape="http://www.inkscape.org/namespaces/inkscape"
   id="svg2985"
   version="1.1"
   inkscape:version="0.48.4 r9939"
   width="489"
   height="271"
   sodipodi:docname="iceberg.svg">
  <metadata
     id="metadata2991">
    <rdf:RDF>
      <cc:Work
         rdf:about="">
        <dc:format>image/svg+xml</dc:format>
        <dc:type
           rdf:resource="http://purl.org/dc/dcmitype/StillImage" />
        <dc:title></dc:title>
      </cc:Work>
    </rdf:RDF>
  </metadata>
  <defs
     id="defs2989" />
  <sodipodi:namedview
     pagecolor="#ffffff"
     bordercolor="#666666"
     borderopacity="1"
     objecttolerance="10"
     gridtolerance="10"
     guidetolerance="10"
     inkscape:pageopacity="0"
     inkscape:pageshadow="2"
     inkscape:window-width="1024"
     inkscape:window-height="543"
     id="namedview2987"
     showgrid="false"
     inkscape:zoom="0.91062829"
     inkscape:cx="296.26422"
     inkscape:cy="138.4626"
     inkscape:window-x="0"
     inkscape:window-y="0"
     inkscape:window-maximized="1"
     inkscape:current-layer="svg2985" />
  <path
     style="fill:none;stroke:#000000;stroke-width:0.91049224px;stroke-linecap:butt;stroke-linejoin:miter;stroke-opacity:1"
     d="M 1.5957646,182.6716 C 19.814192,122.20147 15.978734,148.26617 19.814192,122.20147 23.64965,96.136751 30.361702,72.157221 39.950348,71.114626 49.538996,70.072032 55.292185,53.390614 71.592879,55.475796 95.571348,23.471449 91.503223,35.266993 95.571348,22.734228 99.639461,10.201464 109.80976,2.0920278 121.33609,6.5153556 c 11.52633,4.4233294 10.17029,19.9049794 21.0186,16.2188714 10.84831,-3.686107 34.57901,-4.423328 40.00316,12.532766 5.29456,16.550943 2.03407,37.598289 12.88238,51.605496 10.84832,14.007211 18.98455,34.649401 18.98455,52.342721 0,17.69331 -4.03096,12.58473 3.7291,31.14761 0.84753,2.02736 9.83129,16.03456 9.83129,16.03456 z"
     id="path3793"
     inkscape:connector-curvature="0"
     sodipodi:nodetypes="csscssssssscc" />
  <path
     style="fill:#ffffff;stroke:#000000;stroke-width:0.91049224px;stroke-linecap:butt;stroke-linejoin:miter;stroke-opacity:1"
     d="m 59.127785,91.111517 c -0.226002,0.98296 4.538911,-7.822323 4.407132,-6.819301 -0.159816,1.216348 6.949701,-3.071759 6.949701,-1.843051 0,2.948879 0,5.89777 0,8.846661 0,2.703142 0,5.406283 0,8.109425 0,0.512765 -0.122602,3.419519 0,3.686109 0.142938,0.31084 0.535078,0.42639 0.678016,0.73723 0.101081,0.2198 0,0.49148 0,0.73721 0,0.49148 -0.109626,0.99764 0,1.47444 -0.408661,1.33433 1.098351,1.37111 1.356041,2.21168 0.428812,0.66155 -0.214407,1.51226 0,2.21166 0.471616,1.53838 1.562448,2.14772 2.034056,3.6861 0.417489,1.36181 -1.034593,0.34952 0.678025,2.21167 0.159807,0.17377 0.576946,-0.2198 0.678016,0 0.202147,0.43959 -0.202148,1.03484 0,1.47444 0.10108,0.21981 0.518208,-0.17376 0.678024,0 0.159807,0.17377 -0.10108,0.51743 0,0.73723 0.364417,0.79248 0.86711,1.50283 1.356032,2.21166 -0.06768,1.46047 0.998695,0.34866 1.35604,0.73721 0.159816,0.17378 -0.101069,0.51744 0,0.73724 0.406818,0.88465 1.627247,1.32699 2.034066,2.21165 0.101069,0.2198 -0.159816,0.56346 0,0.73723 0.357344,0.38854 0.935548,0.43241 1.356032,0.73722 0.90214,0.65394 1.398388,2.2577 2.034064,2.94889 0.357345,0.38855 0.998688,0.34866 1.356041,0.73721 0.357342,0.38855 0.257524,1.16964 0.678017,1.47445 0.376097,0.27262 0.951742,-0.2198 1.356042,0 0.57176,0.31083 0.84464,1.05741 1.356041,1.47444 0.808578,0.65939 1.871096,0.86483 2.712072,1.47445 0.782334,0.56709 1.25173,1.64456 2.034063,2.21165 0.452017,0.24574 0.904024,0.49149 1.356042,0.73723 0.226003,0 0.47587,-0.10989 0.678009,0 0.285875,0.15541 0.412081,0.54445 0.678021,0.73722 0.420494,0.3048 0.935559,0.43241 1.356042,0.73722 0.265939,0.19278 0.392135,0.5818 0.67802,0.73722 0.20215,0.10989 0.475871,-0.10988 0.678021,0 3.103039,1.68698 -2.877119,-0.30555 2.034059,1.47444 0.21441,0.0778 0.47587,-0.10989 0.67802,0 2.82175,1.53408 -0.72483,-0.0509 0.67801,1.47444 0.15983,0.17378 0.46362,-0.0777 0.67803,0 4.91118,1.78001 -1.06897,-0.21254 2.03406,1.47445 0.20215,0.10988 0.47587,-0.10988 0.67802,0 2.82175,1.53407 -0.72483,-0.0509 0.67802,1.47444 0.35734,0.38855 0.93555,0.43242 1.35604,0.73723 0.53188,0.38555 -8.02998,9.64165 -7.45822,9.95248 1.99528,1.08476 -39.302498,8.9717 -37.053781,11.41674"
     id="path3951"
     inkscape:connector-curvature="0"
     sodipodi:nodetypes="cssssccsccssccccccsccccssssssccccsccccscccscsc" />
  <path
     style="fill:#ffffff;stroke:#000000;stroke-width:0.91049224px;stroke-linecap:butt;stroke-linejoin:miter;stroke-opacity:1"
     d="m 58.958282,91.295826 c 0,4.669073 0,9.338134 0,14.007204 0,0.97521 0,1.97367 0,2.94889 0,0.49148 0.08865,0.99251 0,1.47444 -0.140164,0.76201 -0.537857,1.44965 -0.67802,2.21167 -0.127436,0.69281 0.18074,3.09654 0,3.6861 -0.159811,0.52129 -0.518209,0.95316 -0.678019,1.47444 -0.134534,0.43885 0.134534,1.0356 0,1.47445 -0.159811,0.52129 -0.51821,0.95314 -0.67802,1.47443 -0.07147,0.23313 0.07147,0.5041 0,0.73723 -0.159811,0.52129 -0.578909,0.93561 -0.67802,1.47445 0,4.19256 0.303219,0.48535 -0.678019,3.6861 -0.214408,0.69939 0.13297,1.48875 0,2.21166 -0.140164,0.76201 -0.50468,1.45777 -0.67802,2.21166 -0.156128,0.67905 0.203055,1.54932 0,2.21167 -0.15981,0.5213 -0.518208,0.95315 -0.67802,1.47445 -0.214408,0.69938 0.132971,1.48875 0,2.21165 0.155592,1.48045 -1.060853,2.40227 -1.356038,3.68612 -0.164444,0.71521 0.214408,1.51227 0,2.21165 -1.63706,5.34001 0.195475,-1.16231 -1.35604,2.21167 -0.834964,1.81574 1.968111,-0.66552 -0.67802,2.21167 -0.15981,0.17376 -0.518209,-0.17377 -0.67802,0 -0.15981,0.17376 0.159811,0.56346 0,0.73721 -0.15981,0.17378 -0.518208,-0.17375 -0.678019,0 -0.159812,0.17378 0.159811,0.56346 0,0.73723 -0.357348,0.38855 -0.998692,0.34867 -1.356039,0.73721 -0.159811,0.17378 0.101069,0.51744 0,0.73724 -0.285878,0.62167 -1.070162,0.85276 -1.35604,1.47443 -0.101069,0.2198 0,0.49148 0,0.73723 -0.452013,0.49148 -1.00145,0.89612 -1.356039,1.47444 -0.125366,0.20447 0.125365,0.53276 0,0.73722 -0.665126,1.08481 -2.046953,1.86408 -2.712079,2.94888 -0.497164,0.81087 -1.566789,3.91527 -2.034059,4.42333 -0.159811,0.17377 -0.518208,-0.17376 -0.678019,0 -0.159811,0.17377 0.159811,0.56347 0,0.73723 -0.159811,0.17376 -0.51821,-0.17376 -0.678019,0 -0.159811,0.17376 0,0.49148 0,0.73721 -0.226007,0 -0.475874,-0.10988 -0.678021,0 -1.623582,0.88268 27.035776,4.47189 25.252453,4.47189"
     id="path3953"
     inkscape:connector-curvature="0"
     sodipodi:nodetypes="cssssssscscssssscsssssccccsscsssccssccc" />
  <path
     style="fill:none;stroke:#000000;stroke-width:0.91049224px;stroke-linecap:butt;stroke-linejoin:miter;stroke-opacity:1"
     d="m 170.66201,185.47586 c -0.226,-0.24573 -12.40042,-0.42638 -17.79801,-0.36861 -0.31961,-0.69506 -1.5573,-0.55027 -3.05109,-0.92152 -0.1773,-0.28918 -0.45202,-0.49149 -0.67801,-0.73724 -0.22601,-0.24574 -0.39216,-0.5818 -0.67803,-0.73721 -0.90739,0.19672 -1.07091,-0.70396 -1.35604,-1.47444 5.70325,-15.14143 24.80914,-1.12801 19.32356,-17.32471 -3.22136,-1.22932 -14.91643,-11.91842 -14.91642,-18.06192 10.84584,-26.14625 -6.83319,-36.87961 -18.64555,-65.612713 0,-2.457405 -10.1703,-13.761458 -10.1703,-16.218863 0,-0.664518 0.14226,-3.222105 0,-3.686114 -0.15981,-0.521297 -0.5182,-0.953148 -0.67802,-1.474433 -0.2144,-0.699396 0.16445,-1.49647 0,-2.211677 -0.28078,-1.221227 -2.10857,-2.215241 -1.35603,-2.94888 3.02814,-2.952049 10.43233,8.151776 10.25506,7.187904 0.52812,-1.385396 1.4078,-1.007981 -0.84754,-10.044641 -0.54997,0.415556 -3.82407,-20.19392 -1.94931,-16.311022 2.04757,2.226353 0.66451,-0.751909 2.71208,1.474442 0.15981,0.173766 -0.15981,0.563458 0,0.737223 1.40284,1.525338 -0.0548,-2.330918 1.35604,0.737221 0.10106,0.219797 -0.15981,0.563456 0,0.737221 0.15981,0.173765 0.45202,0 0.67802,0 0.22601,0.245741 0.50072,0.44806 0.67802,0.737221 0.4129,0.673443 0.57875,1.789083 1.35605,2.211665 0.20213,0.109894 0.5182,-0.173765 0.67801,0 0.15981,0.173764 -0.10106,0.517425 0,0.737222 0.28587,0.621679 1.07016,0.852762 1.35604,1.474442 0.10106,0.219797 -0.10106,0.517426 0,0.737222 0.14294,0.31084 0.53507,0.426382 0.67802,0.737221 0.10106,0.219797 0,0.491481 0,0.737222 0.22601,0.491481 0.39769,1.017236 0.67802,1.474444 0.17729,0.289161 0.53508,0.426379 0.67802,0.737216 0.10106,0.219799 -0.15981,0.563457 0,0.737228 0.90402,0.982963 0.65059,-1.563888 1.35604,0.737217 0.14293,0.466265 -0.10958,0.997641 0,1.474444 0.12257,0.533085 0.51821,0.953152 0.67801,1.474444 0.0715,0.233129 -0.10106,0.51742 0,0.737218 0.14295,0.310847 0.53509,0.426381 0.67803,0.737226 0.10106,0.219799 -0.0715,0.504091 0,0.737218 0.1598,0.521293 0.5182,0.953152 0.67801,1.474444 0.0715,0.233128 -0.10106,0.51743 0,0.737218 0.28589,0.62168 1.07017,0.85277 1.35604,1.474442 0.10106,0.219801 -0.15981,0.563457 0,0.737235 0.15982,0.173754 0.51821,-0.173778 0.67802,0 0.31963,0.347531 -0.20213,1.034844 0,1.474433 0.74957,1.630038 0.42082,0.228779 1.35604,0.737223 0.28588,0.155424 0.53508,0.426375 0.67803,0.737223 0.10106,0.219788 -0.20215,0.627316 0,0.737222 0.40429,0.219801 0.95174,-0.2198 1.35604,0 0.20214,0.109883 -0.15982,0.563457 0,0.737211 0.1598,0.173778 0.51821,-0.173754 0.67801,0 1.40285,1.525343 -2.14373,-0.05958 0.67803,1.474445 0.40428,0.219801 0.92721,-0.155412 1.35603,0 4.91118,1.78001 -1.06897,-0.212543 2.03406,1.474446 0.20215,0.109882 0.47587,-0.109883 0.67801,0 0.28589,0.155424 0.4121,0.544453 0.67803,0.737223 0.42049,0.304806 0.93555,0.432416 1.35604,0.737222 0.26593,0.192782 0.39214,0.581799 0.67802,0.737223 0.20215,0.109882 0.47587,-0.109882 0.67802,0 0.57176,0.310848 0.78429,1.163597 1.35604,1.474445 0.20215,0.109883 0.47587,-0.109882 0.67802,0 0.57175,0.310836 0.82415,1.088895 1.35603,1.474434 4.91604,2.672644 -1.07204,-0.777096 2.03406,1.474445 0.1263,0.09147 2.66868,1.427171 2.71207,1.474446 0.15983,0.173765 -0.1598,0.563456 0,0.737222 0.15983,0.173766 0.47589,-0.109882 0.67804,0 0.28587,0.155412 0.39213,0.581799 0.67801,0.737223 1.66994,0.907871 -0.61207,-2.139962 2.03407,0.737223 0.1598,0.173753 -0.15982,0.563457 0,0.73721 0.1598,0.173778 0.51821,-0.173753 0.67801,0 0.15981,0.173778 -0.1598,0.563469 0,0.737235 0.35735,0.388548 0.93555,0.432417 1.35604,0.737211 0.3087,0.223772 2.60251,2.710628 2.71208,2.948891 0.10106,0.2198 -0.10105,0.517433 0,0.737222 2.24871,2.445057 -0.31962,-0.695063 0.67801,1.474434 1.55152,3.373977 -0.28101,-3.128326 1.35605,2.21168 0.14294,0.466248 -0.20214,1.034844 0,1.474445 2.2487,2.445045 -0.31963,-0.695063 0.67802,1.474434 0.28588,0.621683 1.07016,0.852761 1.35604,1.474445 0.20215,0.43959 -0.14295,1.008186 0,1.474445 0.15981,0.521286 0.39769,1.017237 0.67802,1.474434 0.17729,0.289172 0.57695,0.407527 0.67802,0.737222 0.14293,0.46626 -0.14294,1.008186 0,1.474446 0.20214,0.65939 1.07016,0.852774 1.35604,1.474445 0.31962,0.695063 0.3584,1.516605 0.67801,2.211656 0.14294,0.310848 0.50073,0.448063 0.67802,0.737239 0.46388,1.38203 1.47829,2.50895 2.03406,3.6861 2.40382,7.12705 -1.60455,-6.667671 1.35605,2.94889 0.0715,0.23312 -0.12538,0.53275 0,0.73721 -1.41881,2.61348 2.13788,0.40339 2.03405,2.21167 0.14294,0.31085 0.45201,0.49147 0.67803,0.73722 0,0.49149 -0.14294,1.00819 0,1.47445 0.10106,0.32969 0.45201,0.49148 0.67801,0.73722 0.47669,0.75431 0.67803,1.54095 0.67803,2.21165 1.72188,-0.28518 1.06778,2.23141 1.35603,2.94889 0.14294,0.31084 0.53508,0.42638 0.67802,0.73723 0.46762,1.01688 -0.82112,0.65942 0.67802,1.47443 0.20214,0.10988 0.57694,-0.21979 0.67802,0 0.20215,0.4396 -0.20215,1.03485 0,1.47444 1.52554,0 -0.113,-0.24573 0.67801,1.47445 0.10106,0.2198 0.47588,-0.10988 0.67803,0 1.03844,0.56456 0.53021,1.31375 1.35604,2.21167 0.15981,0.17376 0.5182,-0.17377 0.67802,0 0.15981,0.17376 -0.10106,0.51742 0,0.73722 0.14294,0.31083 0.45201,0.49148 0.67802,0.73721 0.22601,0.24575 0.39213,0.58181 0.67802,0.73723 0.40429,0.21981 0.95175,-0.2198 1.35604,0 0.28587,0.15542 0.39215,0.5818 0.67802,0.73722 0.20214,0.10988 0.51821,-0.17376 0.67801,0 0.15982,0.17377 -0.1598,0.56345 0,0.73723 2.64614,2.87717 0.36413,-0.17066 2.03406,0.73721 0.57176,0.31084 0.78428,1.16361 1.35604,1.47445 0.20214,0.10988 0.47587,-0.10989 0.67802,0 0.28588,0.15542 0.39214,0.58179 0.67801,0.73722 1.66995,0.90787 -0.61206,-2.13996 2.03408,0.73722 0.1598,0.17377 -0.20215,0.62733 0,0.73722 0.40428,0.21979 0.95174,-0.2198 1.35604,0 0.20214,0.10989 -0.15982,0.56346 0,0.73723 0.1598,0.17376 0.45201,0 0.67801,0 0.45202,0.24573 0.99868,0.34867 1.35604,0.73721 0.15981,0.17376 -0.20215,0.62733 0,0.73722 0.4043,0.2198 0.95174,-0.21979 1.35604,0 0.20215,0.10988 -0.10106,0.51743 0,0.73722 0.14293,0.31084 0.53508,0.42639 0.67801,0.73723 0.10106,0.2198 -0.10106,0.51743 0,0.73722 0.14295,0.31083 0.39215,0.5818 0.67803,0.73722 0.20214,0.10988 0.67801,-0.24574 0.67801,0 0,0.24575 -0.452,0 -0.67801,0 0,4.77087 -0.95887,3.38073 0.67801,5.16055 0.22601,0.24575 0.53508,0.42638 0.67802,0.73722 0.45202,0.98297 -0.67802,0.73722 0.67803,0.73722"
     id="path3957"
     inkscape:connector-curvature="0"
     sodipodi:nodetypes="cccccccccsscsacccsscccccsccccccccssccsccsccsscccccssscccscccccccsccsccscccsscssccssscccccccscccccccccsccscscscsscssccscsccccccscccc" />
  <path
     style="fill:#ebf6fe;fill-opacity:1"
     d="m 54.986986,182.79061 c -28.261842,-0.49488 -51.5314022,-1.0588 -51.7101316,-1.25313 -0.4732243,-0.51456 7.3596596,-25.14797 11.5521796,-36.33012 3.103748,-8.27822 3.936357,-11.64279 6.111569,-24.69691 4.625159,-27.757028 10.348732,-43.964687 16.71711,-47.338508 1.247684,-0.661003 3.641506,-1.725647 5.319605,-2.365889 1.678099,-0.64023 5.339404,-3.172446 8.136235,-5.627119 7.085547,-6.21874 10.872644,-8.20982 16.445925,-8.646549 l 4.580582,-0.358933 4.9088,-6.351321 c 2.699839,-3.493233 7.686735,-9.513548 11.082002,-13.37849 4.110186,-4.678761 6.464813,-8.004777 7.045771,-9.952489 1.515887,-5.082107 4.524614,-10.93689 7.094547,-13.805526 3.96832,-4.4295571 7.3995,-6.0321003 12.91523,-6.0321003 6.20381,0 9.56509,1.881051 13.41437,7.5069913 1.57195,2.297493 3.96636,5.43651 5.32091,6.975591 2.86303,3.253086 4.57112,3.486533 11.90303,1.626801 6.73811,-1.709118 18.84067,-1.14314 24.20048,1.131735 4.57344,1.941119 8.78443,5.761503 10.55218,9.573386 1.76066,3.796558 3.17666,10.701709 4.73308,23.080743 2.33986,18.61021 3.60098,22.386071 11.28954,33.801415 8.97574,13.326482 15.42944,30.110622 16.23998,42.235362 0.27009,4.04018 0.18135,4.90163 -0.38515,3.73922 -0.40483,-0.83072 -2.26212,-2.40043 -4.12729,-3.48828 -6.01763,-3.50975 -7.66822,-4.56735 -8.59419,-5.50674 -0.49961,-0.50685 -1.2191,-0.92153 -1.59886,-0.92153 -1.01224,0 -4.63682,-3.89368 -4.63682,-4.98107 0,-0.51213 -0.61021,-1.49924 -1.35603,-2.19359 -0.74583,-0.69435 -1.35604,-1.71808 -1.35604,-2.27495 0,-0.55687 -0.56573,-1.89308 -1.25716,-2.96935 -0.69145,-1.07627 -1.46003,-2.86917 -1.70798,-3.98421 -0.24794,-1.11505 -0.90264,-2.02736 -1.45491,-2.02736 -0.55225,0 -1.00412,-0.37268 -1.00412,-0.82816 0,-0.4555 -1.37298,-3.28715 -3.05108,-6.29254 -1.67809,-3.005412 -3.05109,-5.788854 -3.05109,-6.185453 0,-0.396588 -0.28625,-1.29713 -0.63612,-2.001207 -0.34986,-0.704066 -1.59406,-3.602372 -2.76488,-6.440682 -1.17083,-2.838299 -3.19236,-6.241222 -4.4923,-7.562024 -3.34962,-3.403416 -16.01271,-12.469685 -20.07501,-14.372912 -1.0255,-0.480462 -1.86455,-1.124062 -1.86455,-1.430228 0,-0.306166 -0.91533,-1.071323 -2.03406,-1.70036 -1.11873,-0.629038 -2.03406,-1.523742 -2.03406,-1.988245 0,-0.464503 -0.46476,-1.402932 -1.03281,-2.08543 -0.56803,-0.682483 -1.58379,-2.94211 -2.25723,-5.021385 -0.67345,-2.079276 -1.67523,-4.366871 -2.22619,-5.083544 -0.55098,-0.716682 -1.32706,-2.132422 -1.72463,-3.146101 -1.23275,-3.143052 -14.07175,-16.218873 -15.92512,-16.218873 -0.70691,0 -1.46091,-0.497624 -1.67556,-1.105832 -0.21465,-0.608207 -0.96784,-1.105832 -1.67377,-1.105832 -0.70591,0 -1.28349,-0.307878 -1.28349,-0.684174 0,-0.785275 -7.3064,-1.938303 -7.93709,-1.252556 -0.22926,0.249287 0.12111,1.099585 0.77861,1.889552 0.6575,0.789968 1.05204,1.870188 0.87674,2.400489 -0.1753,0.530302 0.14208,1.959435 0.70526,3.17585 2.02624,4.376458 2.18637,4.78294 2.18637,5.54959 0,0.427711 1.22044,3.48495 2.71208,6.793865 1.49165,3.308915 2.71209,6.966273 2.71209,8.127469 0,1.161196 0.35789,2.835889 0.7953,3.721547 0.43742,0.885648 1.02987,5.757147 1.31653,10.825551 0.77786,13.752697 1.36249,16.926708 3.91418,21.250368 1.23837,2.098332 2.52489,3.815156 2.85892,3.815156 0.33404,0 0.6103,0.414689 0.61392,0.92152 0.003,0.506842 1.07877,2.388153 2.38922,4.180668 1.31046,1.792526 2.548,4.114773 2.7501,5.160543 0.20211,1.04579 0.7657,2.7308 1.25245,3.74448 0.48674,1.01368 1.26921,3.17005 1.7388,4.79194 0.46961,1.62189 1.17155,3.38324 1.55988,3.91413 0.38833,0.53088 0.64613,2.68726 0.57289,4.79194 -0.0733,2.10467 -0.28745,12.98375 -0.47601,24.17573 -0.29778,17.6744 -0.20645,20.47209 0.69479,21.28537 0.5707,0.515 1.03764,1.28431 1.03764,1.70956 0,0.42527 0.46517,1.3321 1.03369,2.01518 0.56853,0.68308 1.35855,3.3632 1.75556,5.95582 0.39702,2.59262 1.24814,5.54323 1.89137,6.55691 0.64324,1.01368 1.39678,2.25775 1.67457,2.76458 0.62257,1.136 -18.03179,1.09556 -91.980354,-0.19935 l 0,0 z m 29.721594,-21.43677 16.30552,-4.18952 3.95353,-5.13933 c 2.17443,-2.82663 3.99021,-5.65585 4.03507,-6.28717 0.088,-1.23908 -3.69405,-4.44065 -8.0547,-6.81847 -3.34186,-1.82225 -4.436965,-2.5654 -8.930819,-6.06045 -1.955064,-1.52052 -3.791426,-2.76457 -4.08082,-2.76457 -0.708859,0 -7.66796,-8.10511 -7.66796,-8.9307 0,-0.35926 -0.434001,-0.65318 -0.964451,-0.65318 -0.530441,0 -1.316879,-1.16113 -1.74763,-2.58027 -0.430752,-1.41916 -0.988359,-2.58408 -1.239115,-2.58874 -0.250765,-0.005 -1.023363,-1.41459 -1.716878,-3.1332 -0.693523,-1.71859 -1.594634,-3.78823 -2.002456,-4.59917 -0.416327,-0.82782 -0.864027,-6.88985 -1.020866,-13.822899 -0.179043,-7.91479 -0.534152,-12.348453 -0.98903,-12.348453 -0.390333,0 -2.339893,0.558739 -4.332355,1.241647 -3.074047,1.053618 -3.972902,1.807209 -5.935416,4.976238 l -2.312755,3.734592 -0.323846,12.164165 c -0.210335,7.90047 -0.688378,13.45617 -1.363849,15.85026 -0.572001,2.02736 -1.523538,6.67184 -2.114528,10.32109 -1.39558,8.61745 -2.956816,14.16892 -4.419739,15.71576 -1.09268,1.15536 -5.624143,8.02077 -8.327166,12.6161 -0.648994,1.10332 -1.945706,2.45164 -2.881584,2.99625 -3.667691,2.13427 -2.402591,2.63659 12.831166,5.09465 11.749047,1.8958 12.241342,1.91872 14.577422,0.67848 1.32975,-0.70598 9.755213,-3.16887 18.723255,-5.47311 l 0,0 z"
     id="path3961"
     inkscape:connector-curvature="0" />
  <path
     style="fill:#008080;fill-opacity:1"
     d="m 51.452563,164.6345 c -4.84784,-0.7792 -9.206311,-1.56506 -9.685491,-1.74633 -1.565947,-0.59243 1.470365,-5.77584 8.264346,-14.10838 2.930108,-3.59364 3.706977,-6.08328 6.175697,-19.7913 0.876273,-4.86566 1.941704,-10.00778 2.367626,-11.42692 0.425922,-1.41915 0.936457,-7.88828 1.134524,-14.37582 0.339662,-11.125466 0.459261,-11.955156 2.105299,-14.605174 1.477863,-2.379247 5.068268,-4.931202 6.937852,-4.931202 0.287526,0 0.631651,5.107327 0.764722,11.349619 0.203309,9.536577 0.43173,11.577607 1.429972,12.776887 0.653401,0.785 0.993465,1.63883 0.755675,1.89738 -0.237782,0.25854 0.06662,1.29814 0.676541,2.3102 0.609882,1.01207 1.108872,2.20671 1.108872,2.65476 0,2.62409 11.210821,16.15556 15.357101,18.53602 1.435737,0.82428 3.220641,2.07684 3.966469,2.78346 0.745817,0.70662 3.143269,2.41337 5.327679,3.79277 10.030003,6.33373 9.832133,5.88889 5.144493,11.56499 -3.636166,4.4029 -3.706221,4.44487 -10.117936,6.06101 -15.150546,3.81881 -28.198594,7.51295 -28.797167,8.15298 -0.844426,0.9029 -2.40272,0.79493 -12.916274,-0.89495 l 0,0 z"
     id="path3963"
     inkscape:connector-curvature="0" />
  <path
     style="fill:#008080;fill-opacity:1"
     d="m 166.69081,184.46309 c -11.9028,-0.31777 -15.59071,-0.64876 -16.78098,-1.50613 -1.80382,-1.2993 -1.88769,-2.06562 -0.46736,-4.27047 1.60252,-2.48769 4.44434,-3.77133 10.27064,-4.63919 6.56321,-0.97762 8.33693,-2.10814 8.32449,-5.30581 -0.0156,-4.02084 -0.64234,-5.30183 -3.59092,-7.34004 -3.37589,-2.3336 -9.28748,-8.84394 -10.99301,-12.10645 -1.17813,-2.25362 -1.17132,-2.47399 0.2281,-7.3722 2.02479,-7.08705 2.3896,-11.03821 1.50751,-16.32734 -1.05117,-6.30308 -3.47089,-11.82695 -11.17408,-25.50887 -3.62968,-6.44684 -7.74841,-14.278022 -9.1527,-17.402628 -1.4043,-3.124594 -4.534,-8.503678 -6.9549,-11.953515 -3.8947,-5.550009 -4.45507,-6.766598 -4.86545,-10.563232 -0.2551,-2.359943 -0.79701,-4.727344 -1.20425,-5.260895 -0.40725,-0.533539 -0.45726,-0.970079 -0.11113,-0.970079 0.92796,0 4.50676,3.001591 6.89959,5.786787 3.91933,4.562007 4.49031,1.02867 1.79128,-11.084678 -1.6367,-7.345546 -2.15379,-12.395423 -1.26926,-12.395423 0.89643,0 6.53225,7.1376 7.85844,9.952494 0.76414,1.621878 1.59284,3.11476 1.84157,3.317487 0.24874,0.202737 1.0198,2.027362 1.71348,4.054724 0.6937,2.027363 1.72744,4.515477 2.29723,5.529163 1.56807,2.7897 5.39166,6.634992 6.59749,6.634992 1.02802,0 13.23719,8.194973 15.07908,10.121308 0.49278,0.515352 1.16602,0.937009 1.49609,0.937009 1.01804,0 5.86421,5.404659 6.9409,7.740832 1.74544,3.787138 4.56647,10.577711 4.56647,10.99205 0,0.217334 1.41009,2.879592 3.13353,5.916114 1.73622,3.05905 2.96102,6.00976 2.74667,6.61712 -0.24077,0.68224 0.12166,1.27164 0.95988,1.5609 0.7407,0.25562 1.86498,1.76548 2.49841,3.35524 0.63342,1.58977 1.38483,2.89049 1.66976,2.89049 0.28495,0 0.51808,0.54139 0.51808,1.20312 0,2.4317 5.08179,9.78985 8.00456,11.59015 0.75481,0.46493 2.84759,1.67469 4.65064,2.68836 1.80304,1.01369 3.68143,2.25776 4.17422,2.76459 0.49277,0.50684 1.22056,0.92153 1.6173,0.92153 1.48777,0 3.92811,3.7815 3.94948,6.12006 0.0119,1.29688 0.45976,2.98742 0.99531,3.75672 0.53557,0.76933 0.82636,1.65807 0.6462,1.97502 -0.18014,0.31695 -0.35066,3.02048 -0.3789,6.00783 -0.0656,6.93884 2.60065,14.80918 8.12371,23.97992 2.13597,3.54665 4.11466,6.86315 4.39707,7.36999 0.5476,0.98272 -26.27005,1.08482 -58.55424,0.22295 l 0,0 z"
     id="path3969"
     inkscape:connector-curvature="0" />
  <path
     style="fill:#ebf6fe;fill-opacity:1"
     d="m 145.45221,180.2105 c -0.18498,-0.32543 -0.84921,-2.74499 -1.47607,-5.37678 -0.62686,-2.63181 -2.06337,-6.86813 -3.19225,-9.41403 l -2.05248,-4.62894 0.47963,-22.64826 0.47963,-22.64826 -3.09262,-8.31552 c -1.70093,-4.57354 -4.0164,-9.775436 -5.14546,-11.559766 -1.12908,-1.784331 -2.05286,-3.599146 -2.05286,-4.032935 0,-0.433777 -0.2733,-0.788686 -0.60734,-0.788686 -1.23017,0 -4.71012,-7.125732 -5.4005,-11.058328 -1.12439,-6.40495 -1.69293,-14.480039 -0.96024,-13.638602 3.16421,3.633856 9.49356,13.906592 12.26409,19.904989 1.87278,4.054707 5.42966,10.855569 7.90416,15.113038 2.4745,4.25745 5.91785,10.87971 7.65187,14.71614 2.85195,6.30979 3.1791,7.57593 3.42874,13.27 0.22978,5.241 1e-5,7.18883 -1.37269,11.63666 -1.87751,6.08354 -1.5903,8.13349 1.82096,12.99638 1.74296,2.48467 8.08883,8.61533 10.77877,10.41324 1.60937,1.07567 2.14729,5.02803 0.87292,6.41366 -0.57211,0.62208 -2.95138,1.35366 -5.3172,1.63498 -7.22486,0.85906 -9.05914,1.66603 -11.97544,5.26842 -1.48461,1.83388 -2.85064,3.06804 -3.03562,2.7426 l 0,0 z"
     id="path3971"
     inkscape:connector-curvature="0" />
  <path
     style="fill:#ebf6fe;fill-opacity:1"
     d="m 127.09194,55.668782 c -2.45267,-2.421842 -3.78659,-3.22472 -5.08516,-3.060709 -1.56919,0.198198 -1.88088,-0.177901 -2.87068,-3.463774 -0.6107,-2.027352 -2.51763,-7.326278 -4.23763,-11.775378 -1.71998,-4.449102 -3.12725,-8.605094 -3.12725,-9.235539 0,-0.630443 -0.47496,-1.883577 -1.05548,-2.78474 -1.03443,-1.605825 -1.00484,-1.63848 1.48499,-1.63848 1.50775,0 4.29987,0.961302 6.86859,2.364796 4.52672,2.473288 9.97429,7.135519 8.39928,7.188396 -1.2252,0.04112 -0.57375,6.596084 1.71126,17.218342 0.94324,4.384815 1.60742,8.084378 1.47594,8.221256 -0.13148,0.136877 -1.73521,-1.228492 -3.56386,-3.03417 l 0,0 z"
     id="path3973"
     inkscape:connector-curvature="0" />
</svg>
